<svg width="466" height="169" viewBox="0 0 466 169" fill="none" xmlns="http://www.w3.org/2000/svg">
<path d="M7.2 133V37.96H86.112V62.584H40.752V74.392H77.328V97.144H40.752V108.376H87.84V133H7.2ZM119.085 120.184L113.181 109.096H179.709V133H93.7406V110.104L153.069 50.776L158.829 61.864H94.3166V37.96H178.125V60.856L119.085 120.184ZM269.414 37.96V93.832C269.414 106.696 265.574 116.68 257.894 123.784C250.214 130.888 239.126 134.44 224.63 134.44C213.974 134.44 205.43 132.568 198.998 128.824C192.662 125.08 188.294 119.944 185.894 113.416C183.59 106.888 183.062 99.496 184.31 91.24L217.574 85.624C216.326 94.648 216.47 100.84 218.006 104.2C219.638 107.56 222.422 109.24 226.358 109.24C229.622 109.24 232.022 107.848 233.558 105.064C235.094 102.28 235.862 97.72 235.862 91.384V37.96H269.414ZM463.468 62.584H418.252V75.832H454.828V100.456H418.252V133H384.7V37.96H463.468V62.584Z" fill="white"/>
<path fill-rule="evenodd" clip-rule="evenodd" d="M327 134C354.062 134 376 112.062 376 85C376 57.938 354.062 36 327 36C299.938 36 278 57.938 278 85C278 112.062 299.938 134 327 134ZM333.421 77.3488C333.14 78.8736 334.067 80.3612 335.56 80.7805L349.317 84.6449C351.623 85.2925 352.278 88.2474 350.462 89.8083L322.715 113.656C320.568 115.501 317.296 113.621 317.809 110.837L321.087 93.0427C321.368 91.5179 320.44 90.0303 318.948 89.611L305.19 85.7466C302.885 85.099 302.23 82.1441 304.046 80.5832L331.793 56.7354C333.939 54.8909 337.212 56.771 336.699 59.5541L333.421 77.3488Z" fill="white"/>
</svg>
