<svg width="64" height="65" viewBox="0 0 64 65" fill="none" xmlns="http://www.w3.org/2000/svg">
<path d="M56 30.2071V52.2071C56 53.2679 55.5786 54.2854 54.8284 55.0355C54.0783 55.7857 53.0609 56.2071 52 56.2071H12C10.9391 56.2071 9.92172 55.7857 9.17157 55.0355C8.42143 54.2854 8 53.2679 8 52.2071V12.2071C8 11.1462 8.42143 10.1288 9.17157 9.37865C9.92172 8.62851 10.9391 8.20708 12 8.20708H34C34.5304 8.20708 35.0391 8.4178 35.4142 8.79287C35.7893 9.16794 36 9.67665 36 10.2071C36 10.7375 35.7893 11.2462 35.4142 11.6213C35.0391 11.9964 34.5304 12.2071 34 12.2071H12V52.2071H52V30.2071C52 29.6766 52.2107 29.1679 52.5858 28.7929C52.9609 28.4178 53.4696 28.2071 54 28.2071C54.5304 28.2071 55.0391 28.4178 55.4142 28.7929C55.7893 29.1679 56 29.6766 56 30.2071V30.2071ZM57.425 17.6321L33.425 41.6321C33.044 42.0035 32.5321 42.2101 32 42.2071H24C23.4696 42.2071 22.9609 41.9964 22.5858 41.6213C22.2107 41.2462 22 40.7375 22 40.2071V32.2071C21.997 31.675 22.2036 31.1631 22.575 30.7821L46.575 6.78208C46.9542 6.40652 47.4663 6.19583 48 6.19583C48.5337 6.19583 49.0458 6.40652 49.425 6.78208L57.425 14.7821C57.8006 15.1613 58.0112 15.6734 58.0112 16.2071C58.0112 16.7408 57.8006 17.2529 57.425 17.6321V17.6321ZM53.175 16.2071L48 11.0321L44.825 14.2071L50 19.3821L53.175 16.2071Z" fill="#1EC1C8"/>
</svg>
