<svg width="64" height="65" viewBox="0 0 64 65" fill="none" xmlns="http://www.w3.org/2000/svg">
<path d="M50.1994 13.6821C45.3552 8.88882 38.8142 6.20233 31.9994 6.2071H31.7244C25.6098 6.26689 19.7119 8.47989 15.0673 12.4572C10.4227 16.4345 7.32851 21.9216 6.32856 27.9541C5.32861 33.9867 6.48688 40.1786 9.5998 45.4418C12.7127 50.705 17.5811 54.7026 23.3494 56.7321C24.5557 57.1556 25.8459 57.2838 27.112 57.106C28.378 56.9282 29.583 56.4495 30.626 55.7101C31.669 54.9707 32.5196 53.9921 33.1065 52.8563C33.6935 51.7205 33.9996 50.4606 33.9994 49.1821V48.2071C33.9994 47.1462 34.4208 46.1288 35.1709 45.3787C35.9211 44.6285 36.9385 44.2071 37.9994 44.2071H49.5494C51.366 44.2207 53.1323 43.6098 54.5522 42.4765C55.9722 41.3433 56.9597 39.7566 57.3493 37.9821C57.8039 36.0151 58.0221 34.0008 57.9994 31.9821C57.9791 28.5667 57.279 25.1896 55.9398 22.0476C54.6006 18.9057 52.6492 16.0619 50.1994 13.6821ZM22.2494 41.3071C21.7354 41.6032 21.1451 41.7404 20.5532 41.7011C19.9613 41.6619 19.3943 41.4481 18.9239 41.0867C18.4535 40.7253 18.1008 40.2325 17.9104 39.6707C17.72 39.1089 17.7004 38.5033 17.8541 37.9303C18.0078 37.3574 18.3279 36.8429 18.774 36.4518C19.2201 36.0608 19.772 35.8108 20.3602 35.7334C20.9483 35.656 21.5462 35.7546 22.0782 36.017C22.6103 36.2793 23.0526 36.6934 23.3494 37.2071C23.5466 37.5485 23.6745 37.9254 23.726 38.3163C23.7774 38.7071 23.7513 39.1043 23.6492 39.4851C23.547 39.8659 23.3708 40.2228 23.1306 40.5354C22.8904 40.8481 22.591 41.1103 22.2494 41.3071ZM23.3494 27.2071C23.0526 27.7208 22.6103 28.1349 22.0782 28.3972C21.5462 28.6595 20.9483 28.7582 20.3602 28.6808C19.772 28.6034 19.2201 28.3534 18.774 27.9624C18.3279 27.5713 18.0078 27.0568 17.8541 26.4839C17.7004 25.9109 17.72 25.3053 17.9104 24.7435C18.1008 24.1817 18.4535 23.6889 18.9239 23.3275C19.3943 22.9661 19.9613 22.7523 20.5532 22.7131C21.1451 22.6738 21.7354 22.8109 22.2494 23.1071C22.9342 23.5093 23.4335 24.1647 23.6393 24.9318C23.8451 25.6989 23.7409 26.5161 23.3494 27.2071ZM31.9994 22.2071C31.406 22.2071 30.826 22.0312 30.3326 21.7015C29.8393 21.3719 29.4548 20.9033 29.2277 20.3551C29.0007 19.807 28.9412 19.2038 29.057 18.6218C29.1728 18.0399 29.4585 17.5053 29.878 17.0858C30.2976 16.6662 30.8321 16.3805 31.4141 16.2647C31.996 16.149 32.5992 16.2084 33.1474 16.4355C33.6956 16.6625 34.1641 17.047 34.4938 17.5404C34.8234 18.0337 34.9994 18.6138 34.9994 19.2071C34.9994 20.0027 34.6833 20.7658 34.1207 21.3284C33.5581 21.891 32.795 22.2071 31.9994 22.2071ZM44.7494 28.3071C44.2354 28.6032 43.6451 28.7404 43.0532 28.7011C42.4613 28.6619 41.8943 28.4481 41.4239 28.0867C40.9535 27.7253 40.6008 27.2325 40.4104 26.6707C40.22 26.1089 40.2004 25.5033 40.3541 24.9303C40.5078 24.3574 40.8279 23.8429 41.274 23.4518C41.7201 23.0608 42.272 22.8108 42.8602 22.7334C43.4483 22.656 44.0462 22.7546 44.5782 23.017C45.1103 23.2793 45.5526 23.6934 45.8493 24.2071C46.2409 24.8981 46.3451 25.7153 46.1393 26.4824C45.9335 27.2495 45.4342 27.9049 44.7494 28.3071Z" fill="#1EC1C8"/>
</svg>
